<?xml version="1.0" encoding="utf-8"?>
<!-- Generator: Adobe Illustrator 23.0.3, SVG Export Plug-In . SVG Version: 6.00 Build 0)  -->
<svg version="1.1" id="Calque_1" xmlns="http://www.w3.org/2000/svg" xmlns:xlink="http://www.w3.org/1999/xlink" x="0px" y="0px"
	 viewBox="0 0 841.89 595.28" style="enable-background:new 0 0 841.89 595.28;" xml:space="preserve">
<style type="text/css">
	.st0{fill:none;stroke:#000000;stroke-width:7;stroke-miterlimit:10;}
</style>
<path class="st0" d="M158.79,240.97c2.23,22.28,32.31,108.07,23.4,213.92s1.11,166.01,1.11,166.01"/>
<path class="st0" d="M300.28,365.76c0.17,61.91,26.8,105.96,21.17,147.07c-7.14,52.07-11.14,102.5-6.68,108.07"/>
<g>
	<g>
		<path d="M138.76,110.88c-6.83-5.04-16.75-8.93-24.8-4.21c-5.64,3.31-9.35,10.97-6.66,17.27c6.86,16.03,36.24,5.31,27.76-11.95
			c-1.31,1.01-2.62,2.02-3.93,3.03c3.46,2.96,5.92,6.6,6.95,11.08c0.91,3.98,1.04,11.33-3.22,13.7c-6.43,3.57-4.17-7.22-5.1-9.94
			c-0.84-2.46-2.48-4.2-5.07-4.61c-0.83-0.13-1.85-0.09-2.43,0.64c-4.04,5.07-3.82,10.8-3.98,16.99
			c-0.2,7.62-4.16,14.54-12.85,13.08c-7.94-1.33-10.96-11.3-7.25-17.85c3.69-6.51,13.49-9.21,20.01-5.39
			c3.95,2.32,4.23,8.4,4.83,12.48c0.64,4.37,1.06,8.77,1.94,13.11c1.34,6.61,3.92,13.24,8.76,18.1c3.84,3.86,9.66,6.91,15.25,5.88
			c6.12-1.13,8.83-6.73,9.7-12.38c2.25-14.68-4.69-29.39-16.4-38.11c-2.26-1.68-5.21,2.11-3.03,3.93c8.03,6.68,19.56,7.16,27.4-0.19
			c8.65-8.1,7.47-20.96,1.85-30.44c-5.22-8.79-15.03-15.47-25.6-12.88c-9.74,2.39-15.1,12.78-10.83,21.91
			c1.36,2.91,5.67,0.38,4.32-2.52c-3.73-7.98,3.83-15.11,11.58-14.93c7.59,0.18,13.57,5.88,16.94,12.24
			c3.78,7.13,4.82,16.37-1.29,22.56c-5.73,5.81-14.68,5.84-20.84,0.71c-1.01,1.31-2.02,2.62-3.03,3.93
			c6.73,5.01,11.43,12.27,13.39,20.43c1.66,6.94,2.38,23.67-9.17,20.45c-8.97-2.5-12.79-12.68-14.35-20.89
			c-1.41-7.4-0.67-17.73-5.01-24.19c-7.08-10.54-25.23-6.01-30.73,3.66c-5.54,9.74-0.39,23.76,11.23,25.38
			c6.13,0.86,12.8-1.82,15.92-7.32c4.18-7.38-0.5-17.59,4.79-24.22c-0.81,0.21-1.62,0.43-2.43,0.64c2.76,0.43,1.26,8.75,2.19,10.9
			c0.72,1.66,2.02,2.93,3.66,3.66c4.01,1.79,8.43,0.17,11.05-3.14c7.18-9.06,2.32-23.25-5.58-30.01c-2.17-1.85-5.2,0.43-3.93,3.03
			c6.93,14.11-22.36,16.65-19.07,2.98c2.95-12.24,17.58-7.45,24.57-2.3C138.83,117.11,141.33,112.78,138.76,110.88L138.76,110.88z"
			/>
	</g>
</g>
<g>
	<g>
		<path d="M170.94,113.92c5.22,4.15,10.81,7.63,16.96,10.22c5.75,2.42,13.05,5.25,19.41,4.54c13.66-1.53,12.92-19.54,6.97-28.15
			c-6.79-9.82-21.45-17.07-33.33-16.87c-10.46,0.18-21.49,9.5-17.31,20.75c1.11,2.99,5.95,1.7,4.82-1.33
			c-4.11-11.05,9.55-15.62,17.94-13.87c8.45,1.77,18.02,6.43,23.27,13.49c2.88,3.88,4.62,8.9,3.67,13.76
			c-1.47,7.47-7.41,7.86-13.71,6.32c-9.21-2.25-17.75-6.52-25.16-12.41C171.99,108.41,168.42,111.92,170.94,113.92L170.94,113.92z"
			/>
	</g>
</g>
<g>
	<g>
		<path d="M207.66,126.92c-3.07,11.78-5.61,28.19,7.51,35.05c9.18,4.8,26.21,4.07,32.74-4.86c7.77-10.62,1.72-24.59-5.18-33.91
			c-7.23-9.75-17.84-17.43-30.42-16.96c-3.21,0.12-3.22,5.12,0,5c9.46-0.35,17.48,4.62,23.63,11.49c6.22,6.95,12.99,17.96,9.85,27.6
			c-3.28,10.06-18.38,11.21-26.96,7.77c-12.15-4.86-8.9-20.1-6.35-29.85C213.3,125.13,208.48,123.81,207.66,126.92L207.66,126.92z"
			/>
	</g>
</g>
<g>
	<g>
		<path d="M205.91,136.64c-6.64,6.76-17.18,11.04-26.36,6.83c-3.85-1.76-7.15-4.87-9.08-8.64c-1.2-2.35-1.91-5.08-1.66-7.73
			c0.27-2.89,2.32-7.4,6.06-6.13c3.05,1.03,4.37-3.79,1.33-4.82c-6.14-2.08-11.26,3.52-12.24,9.26c-1.12,6.6,2.06,13.5,6.78,18.02
			c11.34,10.84,28.5,7.15,38.71-3.25C211.7,137.88,208.17,134.34,205.91,136.64L205.91,136.64z"/>
	</g>
</g>
<g>
	<g>
		<path d="M177.68,153.99c-0.42,3.49-0.83,6.98-1.26,10.47c-0.26,2.09-0.37,5.3-2.79,6.31c-1.94,0.81-4.78-0.26-6.48-1.15
			c-5.56-2.92-8.73-9.35-11.4-14.73c-1.43-2.88-5.75-0.35-4.32,2.52c3.85,7.76,9.29,17.11,18.76,18.37
			c12.48,1.66,11.47-13.32,12.49-21.79C183.06,150.81,178.06,150.83,177.68,153.99L177.68,153.99z"/>
	</g>
</g>
<g>
	<g>
		<path d="M177.46,148.5c0,2.97,0,5.94,0,8.91c0,3.22,5,3.22,5,0c0-2.97,0-5.94,0-8.91C182.46,145.28,177.46,145.27,177.46,148.5
			L177.46,148.5z"/>
	</g>
</g>
<g>
	<g>
		<path d="M179.73,155.21c-0.86,10.42,4.06,21.69,15.09,24.18c9.84,2.22,18.4-4.94,19.47-14.67c1.12-10.17-6.43-18.84-15.54-22.27
			c-9.03-3.4-22.84,0.31-20.17,12.4c0.69,3.14,5.51,1.81,4.82-1.33c-1.31-5.93,5.44-8.17,10.07-7.39c3.17,0.53,6.3,1.96,8.87,3.87
			c5.17,3.83,8.43,10.2,6.49,16.61c-2.13,7.04-9.44,10.18-16.03,6.77c-6.71-3.47-8.65-11.18-8.08-18.18
			C185,152.01,179.99,152.03,179.73,155.21L179.73,155.21z"/>
	</g>
</g>
<g>
	<g>
		<path d="M221.13,160.25c-8.48,0.87-19.59,3.9-19.61,14.42c-0.02,11.61,11.89,16.8,21.31,19.53c10.05,2.92,19.38-0.79,22.3-11.46
			c2.38-8.69-0.95-17.85-8.12-23.14c-2.59-1.91-5.09,2.43-2.52,4.32c4.67,3.44,6.98,9.41,6.3,15.13c-0.36,3.05-1.62,6.08-3.77,8.31
			c-3.67,3.81-8.07,3.41-12.86,2.02c-6.57-1.91-15-4.58-17.18-11.93c-2.68-9.02,7.48-11.52,14.15-12.2
			C224.3,164.93,224.34,159.92,221.13,160.25L221.13,160.25z"/>
	</g>
</g>
<g>
	<g>
		<path d="M233.88,191.81c-8.95,2.54-20.79-1.66-27.55,6.8c-5.46,6.84-0.44,14.64,5.99,18.41c7.12,4.18,17.64,6.59,24.36,0.5
			c7.65-6.92,5.84-17.83,1.51-25.99c-1.51-2.84-5.82-0.32-4.32,2.52c3.33,6.29,5.51,16.29-1.9,20.82
			c-5.43,3.32-13.93,0.26-18.64-3.15c-2.59-1.87-4.92-4.4-4.08-7.79c0.83-3.38,4.3-4.96,7.44-5.69c6.09-1.4,12.38,0.13,18.5-1.6
			C238.3,195.75,236.99,190.92,233.88,191.81L233.88,191.81z"/>
	</g>
</g>
<g>
	<g>
		<path d="M102.97,154.26c-13.77-1.13-23.18,11.15-23.55,23.99c-0.16,5.5,0.87,12.01,4.31,16.48c3.88,5.05,10.5,5.55,16.4,6.24
			c11.74,1.37,24.23-1.02,28.41-13.57c2.12-6.39,2.42-14.47,1.58-21.09c-0.74-5.84-3.75-10.83-9.59-12.54
			c-3.09-0.91-4.42,3.92-1.33,4.82c9.1,2.67,6.88,20.56,4.51,27.48c-3.31,9.7-13.21,10.92-22.12,10.06
			c-4.1-0.4-10.47-0.61-13.44-3.83c-3.2-3.46-3.88-9.57-3.73-14.05c0.34-10.3,7.49-19.9,18.55-18.99
			C106.18,159.52,106.16,154.52,102.97,154.26L102.97,154.26z"/>
	</g>
</g>
<g>
	<g>
		<path d="M127.42,174.99c-4.99,9.61-5.93,22.09,1.39,30.86c5.95,7.12,16.8,10.36,25.22,5.78c9.91-5.39,8.04-17.9,2.62-25.95
			c-5.75-8.53-15.45-13.65-25.71-13.6c-3.22,0.02-3.22,5.02,0,5c7.33-0.04,14.24,2.96,19.2,8.38c5.05,5.53,10.04,17.17,1.36,21.85
			c-6.66,3.6-15.35,0.26-19.58-5.56c-5.17-7.11-4.02-16.85-0.18-24.24C133.22,174.66,128.91,172.13,127.42,174.99L127.42,174.99z"/>
	</g>
</g>
<g>
	<g>
		<path d="M171.72,171.71c-7.61-4.18-17.29,0.74-19.65,8.9c-2.89,10,5.23,20.16,14.08,23.72c9.75,3.92,19.78-1.07,21.16-11.77
			c1.36-10.56-6.84-18.58-15.68-22.74c-2.89-1.36-5.44,2.94-2.52,4.32c5.69,2.69,11.59,6.87,13.09,13.39
			c1.72,7.48-3.71,14.74-11.68,12.99c-6.8-1.49-13.63-8-13.98-15.21c-0.3-6.3,6.47-12.68,12.66-9.28
			C172.02,177.57,174.54,173.26,171.72,171.71L171.72,171.71z"/>
	</g>
</g>
<g>
	<g>
		<path d="M197.46,174.53c-9.1-1.87-18.33,4.76-19.03,14.21c-0.72,9.73,7.1,18.72,16.61,20.03c9.42,1.29,18.28-4.79,18.44-14.72
			c0.18-11.38-9.55-18.47-19.35-21.68c-3.07-1-4.38,3.82-1.33,4.82c6.59,2.15,13.49,6.12,15.28,13.35
			c1.82,7.37-3.16,13.59-10.72,13.42c-6.63-0.15-12.54-5.21-13.79-11.74c-1.39-7.27,5.12-14.39,12.55-12.86
			C199.27,180,200.62,175.18,197.46,174.53L197.46,174.53z"/>
	</g>
</g>
<g>
	<g>
		<path d="M180.34,200.4c-10.98,3.83-12.04,17.37-7.11,26.43c5.72,10.5,18.65,16.85,30.43,15.79c11.65-1.05,19.83-10.89,18.38-22.61
			c-1.48-11.94-12.85-19.33-24.26-19.34c-3.22,0-3.22,5,0,5c9.14,0.01,18.6,5.83,19.39,15.65c0.74,9.22-6.02,16.02-15.09,16.4
			c-8.07,0.34-16.39-3.33-21.71-9.38c-5.23-5.95-8.7-19.63,1.3-23.12C184.69,204.16,183.39,199.33,180.34,200.4L180.34,200.4z"/>
	</g>
</g>
<g>
	<g>
		<path d="M155.36,201.4c-9.74,0.97-16.03,9.56-15.47,19.14c0.52,8.97,6.63,20.58,16.93,20.5c10.11-0.07,15.58-10.5,16.05-19.35
			c0.43-7.97-0.09-25.45-11.69-24.7c-3.19,0.21-3.22,5.21,0,5c7.12-0.46,6.85,14.44,6.71,18.86c-0.2,6.29-3.4,15.1-11.07,15.19
			c-6.74,0.08-10.85-8.07-11.75-13.75c-1.12-7.07,2.46-15.12,10.29-15.9C158.53,206.08,158.57,201.07,155.36,201.4L155.36,201.4z"/>
	</g>
</g>
<g>
	<g>
		<path d="M114.75,196.46c-16.31,6.62-10.96,27.47,2.3,34.22c6.05,3.08,14.98,4.94,20.96,0.72c6.71-4.75,5.11-15.69,5.39-22.81
			c0.12-3.22-4.88-3.21-5,0c-0.18,4.62,0.56,10.7-0.94,15.13c-2.31,6.81-10.85,5.5-16.1,3.42c-4.93-1.96-9.38-5.73-11.14-10.88
			c-1.97-5.76-0.12-12.55,5.86-14.98C119.02,200.09,117.73,195.25,114.75,196.46L114.75,196.46z"/>
	</g>
</g>
<g>
	<g>
		<path d="M166.55,230.15c-10.15,5.23-5.8,19.23,3.17,23c9.73,4.09,19.85-4.5,19.18-14.56c-0.21-3.19-5.21-3.22-5,0
			c0.4,6.03-4.69,11.95-11.08,10.38c-6.05-1.49-10.64-10.95-3.75-14.5C171.94,232.99,169.41,228.67,166.55,230.15L166.55,230.15z"/>
	</g>
</g>
<g>
	<g>
		<path d="M150.53,241.44c-4.25,1.16-8.65,1.56-12.99,0.61c-3.55-0.78-10.74-4.34-6.67-8.86c2.15-2.39-1.38-5.93-3.54-3.54
			c-4.04,4.48-2.72,10.97,2.07,14.38c6.29,4.48,15.36,4.16,22.45,2.23C154.96,245.42,153.65,240.59,150.53,241.44L150.53,241.44z"/>
	</g>
</g>
<g>
	<g>
		<path d="M106.86,211.91c-4.53,1.15-9.78,2.64-14.26,0.54c-6.04-2.83-4.64-8.46-2.34-13.49c1.33-2.9-2.98-5.45-4.32-2.52
			c-2.85,6.22-4.79,13.45,1.24,18.49c6.04,5.06,14,3.58,21,1.81C111.31,215.94,109.98,211.12,106.86,211.91L106.86,211.91z"/>
	</g>
</g>
<g>
	<g>
		<path d="M278.57,235.14c-6.83-5.04-16.75-8.93-24.8-4.21c-5.64,3.31-9.35,10.97-6.66,17.27c6.86,16.03,36.24,5.31,27.76-11.95
			c-1.31,1.01-2.62,2.02-3.93,3.03c3.46,2.96,5.92,6.6,6.95,11.08c0.91,3.98,1.04,11.33-3.22,13.7c-6.43,3.57-4.17-7.22-5.1-9.94
			c-0.84-2.46-2.48-4.2-5.07-4.61c-0.83-0.13-1.85-0.09-2.43,0.64c-4.04,5.07-3.82,10.8-3.98,16.99
			c-0.2,7.62-4.16,14.54-12.85,13.08c-7.94-1.33-10.96-11.3-7.25-17.85c3.69-6.51,13.49-9.21,20.01-5.39
			c3.95,2.32,4.23,8.4,4.83,12.48c0.64,4.37,1.06,8.77,1.94,13.11c1.34,6.61,3.92,13.24,8.76,18.1c3.84,3.86,9.66,6.91,15.25,5.88
			c6.12-1.13,8.83-6.73,9.7-12.38c2.25-14.68-4.68-29.39-16.4-38.11c-2.26-1.68-5.21,2.11-3.03,3.93c8.03,6.68,19.56,7.16,27.4-0.19
			c8.65-8.1,7.47-20.96,1.85-30.44c-5.22-8.79-15.03-15.47-25.6-12.88c-9.74,2.39-15.1,12.78-10.83,21.91
			c1.36,2.91,5.67,0.38,4.32-2.52c-3.73-7.98,3.83-15.11,11.58-14.93c7.59,0.18,13.57,5.88,16.94,12.24
			c3.78,7.13,4.82,16.37-1.29,22.56c-5.73,5.81-14.68,5.84-20.84,0.71c-1.01,1.31-2.02,2.62-3.03,3.93
			c6.73,5.01,11.43,12.27,13.39,20.43c1.66,6.94,2.38,23.67-9.17,20.45c-8.97-2.5-12.79-12.68-14.35-20.89
			c-1.41-7.4-0.67-17.73-5.01-24.19c-7.08-10.54-25.23-6.01-30.73,3.66c-5.54,9.74-0.39,23.76,11.23,25.38
			c6.13,0.86,12.8-1.82,15.92-7.32c4.18-7.38-0.5-17.59,4.79-24.22c-0.81,0.21-1.62,0.43-2.43,0.64c2.76,0.43,1.26,8.75,2.19,10.9
			c0.72,1.66,2.02,2.93,3.66,3.66c4.01,1.79,8.43,0.17,11.05-3.14c7.18-9.06,2.32-23.25-5.58-30.01c-2.17-1.85-5.2,0.43-3.93,3.03
			c6.93,14.11-22.36,16.65-19.07,2.98c2.95-12.24,17.58-7.45,24.57-2.3C278.64,241.37,281.13,237.04,278.57,235.14L278.57,235.14z"
			/>
	</g>
</g>
<g>
	<g>
		<path d="M310.75,238.18c5.22,4.15,10.81,7.63,16.96,10.22c5.75,2.42,13.05,5.25,19.41,4.54c13.66-1.53,12.92-19.54,6.97-28.15
			c-6.79-9.82-21.45-17.07-33.33-16.87c-10.46,0.18-21.49,9.5-17.31,20.75c1.11,2.99,5.95,1.7,4.82-1.33
			c-4.11-11.05,9.55-15.62,17.94-13.87c8.45,1.77,18.02,6.43,23.27,13.49c2.88,3.88,4.62,8.9,3.67,13.76
			c-1.47,7.47-7.41,7.86-13.71,6.32c-9.21-2.25-17.75-6.52-25.16-12.41C311.79,232.67,308.23,236.18,310.75,238.18L310.75,238.18z"
			/>
	</g>
</g>
<g>
	<g>
		<path d="M347.47,251.18c-3.07,11.78-5.61,28.19,7.51,35.05c9.18,4.8,26.21,4.07,32.74-4.86c7.77-10.62,1.72-24.59-5.18-33.91
			c-7.23-9.75-17.84-17.43-30.42-16.96c-3.21,0.12-3.22,5.12,0,5c9.46-0.35,17.48,4.62,23.63,11.49c6.22,6.95,12.99,17.96,9.85,27.6
			c-3.28,10.06-18.38,11.21-26.96,7.77c-12.15-4.86-8.9-20.1-6.35-29.85C353.1,249.39,348.28,248.07,347.47,251.18L347.47,251.18z"
			/>
	</g>
</g>
<g>
	<g>
		<path d="M317.48,278.26c-0.42,3.49-0.83,6.98-1.26,10.47c-0.26,2.09-0.37,5.3-2.79,6.31c-1.94,0.81-4.78-0.26-6.48-1.15
			c-5.56-2.92-8.73-9.35-11.4-14.73c-1.43-2.88-5.75-0.35-4.32,2.52c3.85,7.76,9.29,17.11,18.76,18.37
			c12.48,1.66,11.47-13.32,12.49-21.79C322.87,275.07,317.86,275.1,317.48,278.26L317.48,278.26z"/>
	</g>
</g>
<g>
	<g>
		<path d="M317.26,272.76c0,2.97,0,5.94,0,8.91c0,3.22,5,3.22,5,0c0-2.97,0-5.94,0-8.91C322.26,269.54,317.26,269.53,317.26,272.76
			L317.26,272.76z"/>
	</g>
</g>
<g>
	<g>
		<path d="M319.54,279.48c-0.86,10.42,4.06,21.69,15.09,24.18c9.84,2.22,18.4-4.94,19.47-14.67c1.12-10.17-6.43-18.84-15.54-22.27
			c-9.03-3.4-22.84,0.31-20.17,12.4c0.69,3.14,5.51,1.81,4.82-1.33c-1.31-5.93,5.44-8.17,10.07-7.39c3.17,0.53,6.3,1.96,8.87,3.87
			c5.17,3.83,8.43,10.2,6.49,16.61c-2.13,7.04-9.44,10.18-16.03,6.77c-6.71-3.47-8.65-11.18-8.08-18.18
			C324.8,276.27,319.8,276.29,319.54,279.48L319.54,279.48z"/>
	</g>
</g>
<g>
	<g>
		<path d="M360.94,284.51c-8.48,0.87-19.59,3.9-19.61,14.42c-0.02,11.61,11.89,16.8,21.31,19.53c10.05,2.92,19.38-0.79,22.3-11.46
			c2.38-8.69-0.95-17.85-8.12-23.14c-2.59-1.91-5.09,2.43-2.52,4.32c4.67,3.44,6.98,9.41,6.3,15.13c-0.36,3.05-1.62,6.08-3.77,8.31
			c-3.67,3.81-8.07,3.41-12.86,2.02c-6.57-1.91-15-4.58-17.18-11.93c-2.68-9.02,7.48-11.52,14.15-12.2
			C364.11,289.19,364.14,284.18,360.94,284.51L360.94,284.51z"/>
	</g>
</g>
<g>
	<g>
		<path d="M373.68,316.07c-8.95,2.54-20.79-1.66-27.55,6.8c-5.46,6.84-0.44,14.64,5.99,18.41c7.12,4.18,17.64,6.59,24.36,0.5
			c7.65-6.92,5.84-17.83,1.51-25.99c-1.51-2.84-5.82-0.32-4.32,2.52c3.33,6.29,5.51,16.29-1.9,20.82
			c-5.43,3.32-13.93,0.26-18.64-3.15c-2.59-1.87-4.92-4.4-4.08-7.79c0.83-3.38,4.3-4.96,7.44-5.69c6.09-1.4,12.38,0.13,18.5-1.6
			C378.1,320.01,376.79,315.19,373.68,316.07L373.68,316.07z"/>
	</g>
</g>
<g>
	<g>
		<path d="M242.77,278.52c-13.77-1.13-23.18,11.15-23.55,23.99c-0.16,5.5,0.87,12.01,4.31,16.48c3.88,5.05,10.5,5.55,16.4,6.24
			c11.74,1.37,24.23-1.02,28.41-13.57c2.12-6.39,2.42-14.47,1.58-21.09c-0.74-5.84-3.75-10.83-9.59-12.54
			c-3.09-0.91-4.42,3.92-1.33,4.82c9.1,2.67,6.88,20.56,4.51,27.48c-3.31,9.7-13.21,10.92-22.12,10.06
			c-4.1-0.4-10.47-0.61-13.44-3.83c-3.2-3.46-3.88-9.57-3.73-14.05c0.34-10.3,7.49-19.9,18.55-18.99
			C245.98,283.78,245.96,278.78,242.77,278.52L242.77,278.52z"/>
	</g>
</g>
<g>
	<g>
		<path d="M267.23,299.25c-4.99,9.61-5.93,22.09,1.39,30.86c5.95,7.12,16.8,10.36,25.22,5.78c9.91-5.39,8.04-17.9,2.62-25.95
			c-5.75-8.53-15.45-13.65-25.71-13.6c-3.22,0.02-3.22,5.02,0,5c7.33-0.04,14.24,2.96,19.2,8.38c5.05,5.53,10.04,17.17,1.36,21.85
			c-6.66,3.6-15.35,0.26-19.58-5.56c-5.17-7.11-4.02-16.85-0.18-24.24C273.03,298.92,268.71,296.39,267.23,299.25L267.23,299.25z"/>
	</g>
</g>
<g>
	<g>
		<path d="M311.52,295.97c-7.61-4.18-17.29,0.74-19.65,8.9c-2.89,10,5.23,20.16,14.08,23.72c9.75,3.92,19.78-1.07,21.16-11.77
			c1.36-10.56-6.84-18.58-15.68-22.74c-2.89-1.36-5.44,2.94-2.52,4.32c5.69,2.69,11.59,6.87,13.09,13.39
			c1.72,7.48-3.71,14.74-11.68,12.99c-6.8-1.49-13.63-8-13.98-15.21c-0.3-6.3,6.47-12.68,12.66-9.28
			C311.82,301.83,314.35,297.52,311.52,295.97L311.52,295.97z"/>
	</g>
</g>
<g>
	<g>
		<path d="M337.27,298.8c-9.1-1.87-18.33,4.76-19.03,14.21c-0.72,9.73,7.1,18.72,16.61,20.03c9.42,1.29,18.29-4.79,18.44-14.72
			c0.18-11.38-9.55-18.47-19.35-21.68c-3.07-1-4.38,3.82-1.33,4.82c6.59,2.15,13.49,6.12,15.28,13.35
			c1.82,7.37-3.16,13.59-10.72,13.42c-6.63-0.15-12.54-5.21-13.79-11.74c-1.39-7.27,5.12-14.39,12.55-12.86
			C339.08,304.26,340.42,299.44,337.27,298.8L337.27,298.8z"/>
	</g>
</g>
<g>
	<g>
		<path d="M320.14,324.66c-10.98,3.83-12.04,17.37-7.11,26.43c5.72,10.5,18.65,16.85,30.43,15.79
			c11.65-1.05,19.83-10.89,18.38-22.61c-1.48-11.94-12.85-19.33-24.26-19.34c-3.22,0-3.22,5,0,5c9.14,0.01,18.6,5.83,19.39,15.65
			c0.74,9.22-6.02,16.02-15.09,16.4c-8.07,0.34-16.39-3.33-21.71-9.38c-5.23-5.95-8.7-19.63,1.3-23.12
			C324.49,328.42,323.19,323.59,320.14,324.66L320.14,324.66z"/>
	</g>
</g>
<g>
	<g>
		<path d="M295.17,325.66c-9.74,0.97-16.03,9.56-15.47,19.14c0.52,8.97,6.63,20.58,16.93,20.5c10.11-0.07,15.58-10.5,16.05-19.35
			c0.43-7.97-0.09-25.45-11.69-24.7c-3.19,0.21-3.22,5.21,0,5c7.12-0.46,6.85,14.44,6.71,18.86c-0.2,6.29-3.4,15.1-11.07,15.19
			c-6.74,0.08-10.85-8.07-11.75-13.75c-1.12-7.07,2.46-15.12,10.29-15.9C298.34,330.34,298.37,325.34,295.17,325.66L295.17,325.66z"
			/>
	</g>
</g>
<g>
	<g>
		<path d="M254.55,320.72c-16.31,6.62-10.96,27.47,2.3,34.22c6.05,3.08,14.98,4.94,20.96,0.72c6.71-4.75,5.11-15.69,5.39-22.81
			c0.12-3.22-4.88-3.21-5,0c-0.18,4.62,0.56,10.7-0.94,15.13c-2.31,6.81-10.85,5.5-16.1,3.42c-4.93-1.96-9.38-5.73-11.14-10.88
			c-1.97-5.76-0.12-12.55,5.86-14.98C258.82,324.35,257.53,319.51,254.55,320.72L254.55,320.72z"/>
	</g>
</g>
<g>
	<g>
		<path d="M306.35,354.41c-10.15,5.23-5.8,19.23,3.17,23c9.73,4.09,19.85-4.5,19.18-14.56c-0.21-3.19-5.21-3.22-5,0
			c0.4,6.03-4.69,11.95-11.08,10.38c-6.05-1.49-10.64-10.95-3.75-14.5C311.74,357.25,309.21,352.94,306.35,354.41L306.35,354.41z"/>
	</g>
</g>
<g>
	<g>
		<path d="M290.34,365.7c-4.25,1.16-8.65,1.56-12.99,0.61c-3.55-0.78-10.74-4.34-6.67-8.86c2.15-2.39-1.38-5.93-3.54-3.54
			c-4.04,4.48-2.72,10.97,2.07,14.38c6.29,4.48,15.36,4.16,22.45,2.23C294.77,369.68,293.45,364.85,290.34,365.7L290.34,365.7z"/>
	</g>
</g>
<g>
	<g>
		<path d="M246.66,336.17c-4.53,1.15-9.78,2.64-14.26,0.54c-6.04-2.83-4.64-8.46-2.34-13.49c1.33-2.9-2.98-5.45-4.32-2.52
			c-2.85,6.22-4.79,13.45,1.24,18.49c6.04,5.06,14,3.58,21,1.81C251.11,340.2,249.79,335.38,246.66,336.17L246.66,336.17z"/>
	</g>
</g>
<g>
	<g>
		<path d="M322.57,241.44c-12.25-0.83-27.16-0.42-35.07,10.57c-6.61,9.18-5.56,22.12,5.47,27.17c5.66,2.59,12.21,2.74,18.32,2.8
			c7.45,0.07,15.18-0.4,22.26-2.95c10.71-3.86,21.61-14.32,14.9-26.33c-7.74-13.86-28.06-16.45-42.09-14.04
			c-3.16,0.54-1.82,5.36,1.33,4.82c7.45-1.28,14.99-0.82,22.19,1.56c6.1,2.02,13.57,6.02,15.34,12.79
			c2.01,7.7-5.57,13.33-11.76,15.88c-6.47,2.67-13.53,3.25-20.47,3.28c-5.61,0.02-11.81,0.13-17.11-1.97
			c-6.74-2.68-9.14-9.28-6.63-15.89c5.08-13.36,21.38-13.49,33.33-12.68C325.78,246.66,325.77,241.66,322.57,241.44L322.57,241.44z"
			/>
	</g>
</g>
<g>
	<g>
		<path d="M315.42,243.88c-3.69,7.64-2.63,17.17,3.7,23.16c6.3,5.95,15.99,6.52,23.34,2.34c2.8-1.59,0.28-5.91-2.52-4.32
			c-12.32,7.02-26.46-5.71-20.2-18.65C321.13,243.52,316.82,240.98,315.42,243.88L315.42,243.88z"/>
	</g>
</g>
<g>
	<g>
		<path d="M296.25,364.34c-3.31,0.87-6.62,1.73-9.93,2.6c-3.11,0.81-1.79,5.64,1.33,4.82c3.31-0.87,6.62-1.73,9.93-2.6
			C300.68,368.34,299.37,363.52,296.25,364.34L296.25,364.34z"/>
	</g>
</g>
<g>
	<g>
		<path d="M300.28,368.26c3.22,0,3.22-5,0-5C297.07,363.26,297.06,368.26,300.28,368.26L300.28,368.26z"/>
	</g>
</g>
<g>
	<g>
		<path d="M151.45,246.69c4.25,0.66,8.5-0.62,11.33-3.95c2.08-2.44-1.44-5.99-3.54-3.54c-1.6,1.88-3.95,3.06-6.47,2.67
			c-1.34-0.21-2.67,0.34-3.08,1.75C149.36,244.79,150.11,246.48,151.45,246.69L151.45,246.69z"/>
	</g>
</g>
<path class="st0" d="M533.16,282.52c2.23,22.28,32.31,108.07,23.4,213.92c-8.91,105.84,1.11,166.01,1.11,166.01"/>
<path class="st0" d="M674.66,407.3c0.17,61.91,26.8,105.96,21.17,147.07c-7.14,52.07-11.14,102.5-6.68,108.07"/>
<g>
	<g>
		<path d="M513.14,152.43c-6.83-5.04-16.75-8.93-24.8-4.21c-5.64,3.31-9.35,10.97-6.66,17.27c6.86,16.03,36.24,5.31,27.76-11.95
			c-1.31,1.01-2.62,2.02-3.93,3.03c3.46,2.96,5.92,6.6,6.95,11.08c0.91,3.98,1.04,11.33-3.22,13.7c-6.43,3.57-4.17-7.22-5.1-9.94
			c-0.84-2.46-2.48-4.2-5.07-4.61c-0.83-0.13-1.85-0.09-2.43,0.64c-4.04,5.07-3.82,10.8-3.98,16.99
			c-0.2,7.62-4.16,14.54-12.85,13.08c-7.94-1.33-10.96-11.3-7.25-17.85c3.69-6.51,13.49-9.21,20.01-5.39
			c3.95,2.32,4.23,8.4,4.83,12.48c0.64,4.37,1.06,8.77,1.94,13.11c1.34,6.61,3.92,13.24,8.76,18.1c3.84,3.86,9.66,6.91,15.25,5.88
			c6.12-1.13,8.83-6.73,9.7-12.38c2.25-14.68-4.69-29.39-16.4-38.11c-2.26-1.68-5.21,2.11-3.03,3.93c8.03,6.68,19.56,7.16,27.4-0.19
			c8.65-8.1,7.47-20.96,1.85-30.44c-5.22-8.79-15.03-15.47-25.6-12.88c-9.74,2.39-15.1,12.78-10.83,21.91
			c1.36,2.91,5.67,0.38,4.32-2.52c-3.73-7.98,3.83-15.11,11.58-14.93c7.59,0.18,13.57,5.88,16.94,12.24
			c3.78,7.13,4.82,16.37-1.29,22.56c-5.73,5.81-14.68,5.84-20.84,0.71c-1.01,1.31-2.02,2.62-3.03,3.93
			c6.73,5.01,11.43,12.27,13.39,20.43c1.66,6.94,2.38,23.67-9.17,20.45c-8.97-2.5-12.79-12.68-14.35-20.89
			c-1.41-7.4-0.67-17.73-5.01-24.19c-7.08-10.54-25.23-6.01-30.73,3.66c-5.54,9.74-0.39,23.76,11.23,25.38
			c6.13,0.86,12.8-1.82,15.92-7.32c4.18-7.38-0.5-17.59,4.79-24.22c-0.81,0.21-1.62,0.43-2.43,0.64c2.76,0.43,1.26,8.75,2.19,10.9
			c0.72,1.66,2.02,2.93,3.66,3.66c4.01,1.79,8.43,0.17,11.05-3.14c7.18-9.06,2.32-23.25-5.58-30.01c-2.17-1.85-5.2,0.43-3.93,3.03
			c6.93,14.11-22.36,16.65-19.07,2.98c2.95-12.24,17.58-7.45,24.57-2.3C513.21,158.66,515.71,154.32,513.14,152.43L513.14,152.43z"
			/>
	</g>
</g>
<g>
	<g>
		<path d="M545.32,155.47c5.22,4.15,10.81,7.63,16.96,10.22c5.75,2.42,13.05,5.25,19.41,4.54c13.66-1.53,12.92-19.54,6.97-28.15
			c-6.79-9.82-21.45-17.07-33.33-16.87c-10.46,0.18-21.49,9.5-17.31,20.75c1.11,2.99,5.95,1.7,4.82-1.33
			c-4.11-11.05,9.55-15.62,17.94-13.87c8.45,1.77,18.02,6.43,23.27,13.49c2.88,3.88,4.62,8.9,3.67,13.76
			c-1.47,7.47-7.41,7.86-13.71,6.32c-9.21-2.25-17.75-6.52-25.16-12.41C546.36,149.95,542.8,153.47,545.32,155.47L545.32,155.47z"/>
	</g>
</g>
<g>
	<g>
		<path d="M582.04,168.47c-3.07,11.78-5.61,28.19,7.51,35.05c9.18,4.8,26.21,4.07,32.74-4.86c7.77-10.62,1.72-24.59-5.18-33.91
			c-7.23-9.75-17.84-17.43-30.42-16.96c-3.21,0.12-3.22,5.12,0,5c9.46-0.35,17.48,4.62,23.63,11.49c6.22,6.95,12.99,17.96,9.85,27.6
			c-3.28,10.06-18.38,11.21-26.96,7.77c-12.15-4.86-8.9-20.1-6.35-29.85C587.68,166.68,582.85,165.35,582.04,168.47L582.04,168.47z"
			/>
	</g>
</g>
<g>
	<g>
		<path d="M580.29,178.18c-6.64,6.76-17.18,11.04-26.36,6.83c-3.85-1.76-7.15-4.87-9.08-8.64c-1.2-2.35-1.91-5.08-1.66-7.73
			c0.27-2.89,2.32-7.4,6.06-6.13c3.05,1.03,4.37-3.79,1.33-4.82c-6.14-2.08-11.26,3.52-12.24,9.26c-1.12,6.6,2.06,13.5,6.78,18.02
			c11.34,10.84,28.5,7.15,38.71-3.25C586.08,179.42,582.55,175.88,580.29,178.18L580.29,178.18z"/>
	</g>
</g>
<g>
	<g>
		<path d="M552.05,195.54c-0.42,3.49-0.83,6.98-1.26,10.47c-0.26,2.09-0.37,5.3-2.79,6.31c-1.94,0.81-4.78-0.26-6.48-1.15
			c-5.56-2.92-8.73-9.35-11.4-14.73c-1.43-2.88-5.75-0.35-4.32,2.52c3.85,7.76,9.29,17.11,18.76,18.37
			c12.48,1.66,11.47-13.32,12.49-21.79C557.44,192.35,552.44,192.38,552.05,195.54L552.05,195.54z"/>
	</g>
</g>
<g>
	<g>
		<path d="M551.83,190.04c0,2.97,0,5.94,0,8.91c0,3.22,5,3.22,5,0c0-2.97,0-5.94,0-8.91C556.83,186.82,551.83,186.82,551.83,190.04
			L551.83,190.04z"/>
	</g>
</g>
<g>
	<g>
		<path d="M554.11,196.76c-0.86,10.42,4.06,21.69,15.09,24.18c9.84,2.22,18.4-4.94,19.47-14.67c1.12-10.17-6.43-18.84-15.54-22.27
			c-9.03-3.4-22.84,0.31-20.17,12.4c0.69,3.14,5.52,1.81,4.82-1.33c-1.31-5.93,5.44-8.17,10.07-7.39c3.17,0.53,6.3,1.96,8.87,3.87
			c5.17,3.83,8.43,10.2,6.49,16.61c-2.13,7.04-9.44,10.18-16.03,6.77c-6.71-3.47-8.65-11.18-8.08-18.18
			C559.37,193.55,554.37,193.57,554.11,196.76L554.11,196.76z"/>
	</g>
</g>
<g>
	<g>
		<path d="M595.51,201.8c-8.48,0.87-19.59,3.9-19.61,14.42c-0.02,11.61,11.89,16.8,21.31,19.53c10.05,2.92,19.38-0.79,22.3-11.46
			c2.38-8.69-0.95-17.85-8.12-23.14c-2.59-1.91-5.09,2.43-2.52,4.32c4.67,3.44,6.98,9.41,6.3,15.13c-0.36,3.05-1.62,6.08-3.77,8.31
			c-3.67,3.81-8.07,3.41-12.86,2.02c-6.57-1.91-15-4.58-17.18-11.93c-2.68-9.02,7.48-11.52,14.15-12.2
			C598.68,206.47,598.71,201.47,595.51,201.8L595.51,201.8z"/>
	</g>
</g>
<g>
	<g>
		<path d="M608.26,233.35c-8.95,2.54-20.79-1.66-27.55,6.8c-5.46,6.84-0.44,14.64,5.99,18.41c7.12,4.18,17.64,6.59,24.36,0.5
			c7.65-6.92,5.84-17.83,1.51-25.99c-1.51-2.84-5.82-0.32-4.32,2.52c3.33,6.29,5.51,16.29-1.9,20.82
			c-5.43,3.32-13.93,0.26-18.64-3.15c-2.59-1.87-4.92-4.4-4.08-7.79c0.83-3.38,4.3-4.96,7.44-5.69c6.09-1.4,12.38,0.13,18.5-1.6
			C612.68,237.3,611.36,232.47,608.26,233.35L608.26,233.35z"/>
	</g>
</g>
<g>
	<g>
		<path d="M477.35,195.8c-13.77-1.13-23.18,11.15-23.55,23.99c-0.16,5.5,0.87,12.01,4.31,16.48c3.88,5.05,10.5,5.55,16.4,6.24
			c11.74,1.37,24.23-1.02,28.41-13.57c2.12-6.39,2.42-14.47,1.58-21.09c-0.74-5.84-3.75-10.83-9.59-12.54
			c-3.09-0.91-4.42,3.92-1.33,4.82c9.1,2.67,6.88,20.56,4.51,27.48c-3.31,9.7-13.21,10.92-22.12,10.06
			c-4.1-0.4-10.47-0.61-13.44-3.83c-3.2-3.46-3.88-9.57-3.73-14.05c0.34-10.3,7.49-19.9,18.55-18.99
			C480.55,201.06,480.54,196.06,477.35,195.8L477.35,195.8z"/>
	</g>
</g>
<g>
	<g>
		<path d="M501.8,216.53c-4.99,9.61-5.93,22.09,1.39,30.86c5.95,7.12,16.8,10.36,25.22,5.78c9.91-5.39,8.04-17.9,2.62-25.95
			c-5.75-8.53-15.45-13.65-25.71-13.6c-3.22,0.02-3.22,5.02,0,5c7.33-0.04,14.24,2.96,19.2,8.38c5.05,5.53,10.04,17.17,1.36,21.85
			c-6.66,3.6-15.35,0.26-19.58-5.56c-5.17-7.11-4.02-16.85-0.18-24.24C507.6,216.2,503.29,213.67,501.8,216.53L501.8,216.53z"/>
	</g>
</g>
<g>
	<g>
		<path d="M546.1,213.25c-7.61-4.18-17.29,0.74-19.65,8.9c-2.89,10,5.23,20.16,14.08,23.72c9.75,3.92,19.78-1.07,21.16-11.77
			c1.36-10.56-6.84-18.58-15.68-22.74c-2.89-1.36-5.44,2.94-2.52,4.32c5.69,2.69,11.59,6.87,13.09,13.39
			c1.72,7.48-3.71,14.74-11.68,12.99c-6.8-1.49-13.63-8-13.98-15.21c-0.3-6.3,6.47-12.68,12.66-9.28
			C546.4,219.12,548.92,214.8,546.1,213.25L546.1,213.25z"/>
	</g>
</g>
<g>
	<g>
		<path d="M571.84,216.08c-9.1-1.87-18.33,4.76-19.03,14.21c-0.72,9.73,7.1,18.72,16.61,20.03c9.42,1.29,18.28-4.79,18.44-14.72
			c0.18-11.38-9.55-18.47-19.35-21.68c-3.07-1-4.38,3.82-1.33,4.82c6.59,2.15,13.49,6.12,15.28,13.35
			c1.82,7.37-3.16,13.59-10.72,13.42c-6.63-0.15-12.54-5.21-13.79-11.74c-1.39-7.27,5.12-14.39,12.55-12.86
			C573.65,221.55,574.99,216.73,571.84,216.08L571.84,216.08z"/>
	</g>
</g>
<g>
	<g>
		<path d="M554.72,241.94c-10.98,3.83-12.04,17.37-7.11,26.43c5.72,10.5,18.65,16.85,30.43,15.79
			c11.65-1.05,19.83-10.89,18.38-22.61c-1.48-11.94-12.85-19.33-24.26-19.34c-3.22,0-3.22,5,0,5c9.14,0.01,18.6,5.83,19.39,15.65
			c0.74,9.22-6.02,16.02-15.09,16.4c-8.07,0.34-16.39-3.33-21.71-9.38c-5.23-5.95-8.7-19.63,1.3-23.12
			C559.06,245.71,557.77,240.88,554.72,241.94L554.72,241.94z"/>
	</g>
</g>
<g>
	<g>
		<path d="M529.74,242.94c-9.74,0.97-16.03,9.56-15.47,19.14c0.52,8.97,6.63,20.58,16.93,20.5c10.11-0.07,15.58-10.5,16.05-19.35
			c0.43-7.97-0.09-25.45-11.69-24.7c-3.19,0.21-3.22,5.21,0,5c7.12-0.46,6.85,14.44,6.71,18.86c-0.2,6.29-3.4,15.1-11.07,15.19
			c-6.74,0.08-10.85-8.07-11.75-13.75c-1.12-7.07,2.46-15.12,10.29-15.9C532.91,247.62,532.94,242.62,529.74,242.94L529.74,242.94z"
			/>
	</g>
</g>
<g>
	<g>
		<path d="M489.12,238.01c-16.31,6.62-10.96,27.47,2.3,34.22c6.05,3.08,14.98,4.94,20.96,0.72c6.71-4.75,5.11-15.69,5.39-22.81
			c0.12-3.22-4.88-3.21-5,0c-0.18,4.62,0.56,10.7-0.94,15.13c-2.31,6.81-10.85,5.5-16.1,3.42c-4.93-1.96-9.38-5.73-11.14-10.88
			c-1.97-5.76-0.12-12.55,5.86-14.98C493.39,241.63,492.11,236.8,489.12,238.01L489.12,238.01z"/>
	</g>
</g>
<g>
	<g>
		<path d="M540.93,271.69c-10.15,5.23-5.8,19.23,3.17,23c9.73,4.09,19.85-4.5,19.18-14.56c-0.21-3.19-5.21-3.22-5,0
			c0.4,6.03-4.69,11.95-11.08,10.38c-6.05-1.49-10.64-10.95-3.75-14.5C546.31,274.54,543.79,270.22,540.93,271.69L540.93,271.69z"/>
	</g>
</g>
<g>
	<g>
		<path d="M524.91,282.98c-4.25,1.16-8.65,1.56-12.99,0.61c-3.55-0.78-10.74-4.34-6.67-8.86c2.15-2.39-1.38-5.93-3.54-3.54
			c-4.04,4.48-2.72,10.97,2.07,14.38c6.29,4.48,15.36,4.16,22.45,2.23C529.34,286.96,528.02,282.13,524.91,282.98L524.91,282.98z"/>
	</g>
</g>
<g>
	<g>
		<path d="M481.24,253.45c-4.53,1.15-9.78,2.64-14.26,0.54c-6.04-2.83-4.64-8.46-2.34-13.49c1.33-2.9-2.98-5.45-4.32-2.52
			c-2.85,6.22-4.79,13.45,1.24,18.49c6.04,5.06,14,3.58,21,1.81C485.68,257.49,484.36,252.66,481.24,253.45L481.24,253.45z"/>
	</g>
</g>
<g>
	<g>
		<path d="M652.95,276.69c-6.83-5.04-16.75-8.93-24.8-4.21c-5.64,3.31-9.35,10.97-6.66,17.27c6.86,16.03,36.24,5.31,27.76-11.95
			c-1.31,1.01-2.62,2.02-3.93,3.03c3.46,2.96,5.92,6.6,6.95,11.08c0.91,3.98,1.04,11.33-3.22,13.7c-6.43,3.57-4.17-7.22-5.1-9.94
			c-0.84-2.46-2.48-4.2-5.07-4.61c-0.83-0.13-1.85-0.09-2.43,0.64c-4.04,5.07-3.82,10.8-3.98,16.99
			c-0.2,7.62-4.16,14.54-12.85,13.08c-7.94-1.33-10.96-11.3-7.25-17.85c3.69-6.51,13.49-9.21,20.01-5.39
			c3.95,2.32,4.23,8.4,4.83,12.48c0.64,4.37,1.06,8.77,1.94,13.11c1.34,6.61,3.92,13.24,8.76,18.1c3.84,3.86,9.66,6.91,15.25,5.88
			c6.12-1.13,8.83-6.73,9.7-12.38c2.25-14.68-4.69-29.39-16.4-38.11c-2.26-1.68-5.21,2.11-3.03,3.93c8.03,6.68,19.56,7.16,27.4-0.19
			c8.65-8.1,7.47-20.96,1.85-30.44c-5.22-8.79-15.03-15.47-25.6-12.88c-9.74,2.39-15.1,12.78-10.83,21.91
			c1.36,2.91,5.67,0.38,4.32-2.52c-3.73-7.98,3.83-15.11,11.58-14.93c7.59,0.18,13.57,5.88,16.94,12.24
			c3.78,7.13,4.82,16.37-1.28,22.56c-5.73,5.81-14.68,5.84-20.84,0.71c-1.01,1.31-2.02,2.62-3.03,3.93
			c6.73,5.01,11.43,12.27,13.39,20.43c1.66,6.94,2.38,23.67-9.17,20.45c-8.97-2.5-12.79-12.68-14.35-20.89
			c-1.41-7.4-0.67-17.73-5.01-24.19c-7.08-10.54-25.23-6.01-30.73,3.66c-5.54,9.74-0.39,23.76,11.23,25.38
			c6.13,0.86,12.8-1.82,15.92-7.32c4.18-7.38-0.5-17.59,4.79-24.22c-0.81,0.21-1.62,0.43-2.43,0.64c2.76,0.43,1.26,8.75,2.19,10.9
			c0.72,1.66,2.02,2.93,3.66,3.66c4.01,1.79,8.43,0.17,11.05-3.14c7.18-9.06,2.32-23.25-5.58-30.01c-2.17-1.85-5.2,0.43-3.93,3.03
			c6.93,14.11-22.36,16.65-19.07,2.98c2.95-12.24,17.58-7.45,24.57-2.3C653.01,282.92,655.51,278.58,652.95,276.69L652.95,276.69z"
			/>
	</g>
</g>
<g>
	<g>
		<path d="M685.13,279.73c5.22,4.15,10.81,7.63,16.96,10.22c5.75,2.42,13.05,5.25,19.41,4.54c13.66-1.53,12.92-19.54,6.97-28.15
			c-6.79-9.82-21.45-17.07-33.33-16.87c-10.46,0.18-21.49,9.5-17.31,20.75c1.11,2.99,5.95,1.7,4.82-1.33
			c-4.11-11.05,9.55-15.62,17.94-13.87c8.45,1.77,18.02,6.43,23.27,13.49c2.88,3.88,4.62,8.9,3.67,13.76
			c-1.47,7.47-7.41,7.86-13.71,6.32c-9.21-2.25-17.75-6.52-25.16-12.41C686.17,274.21,682.61,277.73,685.13,279.73L685.13,279.73z"
			/>
	</g>
</g>
<g>
	<g>
		<path d="M721.85,292.73c-3.07,11.78-5.61,28.19,7.51,35.05c9.18,4.8,26.21,4.07,32.74-4.86c7.77-10.62,1.72-24.59-5.18-33.91
			c-7.23-9.75-17.84-17.43-30.42-16.96c-3.21,0.12-3.22,5.12,0,5c9.46-0.35,17.48,4.62,23.63,11.49c6.22,6.95,12.99,17.96,9.85,27.6
			c-3.28,10.06-18.38,11.21-26.96,7.77c-12.15-4.86-8.9-20.1-6.35-29.85C727.48,290.94,722.66,289.61,721.85,292.73L721.85,292.73z"
			/>
	</g>
</g>
<g>
	<g>
		<path d="M691.86,319.8c-0.42,3.49-0.83,6.98-1.26,10.47c-0.26,2.09-0.37,5.3-2.79,6.31c-1.94,0.81-4.78-0.26-6.48-1.15
			c-5.56-2.92-8.73-9.35-11.4-14.73c-1.43-2.88-5.75-0.35-4.32,2.52c3.85,7.76,9.29,17.11,18.76,18.37
			c12.48,1.66,11.47-13.32,12.49-21.79C697.24,316.61,692.24,316.64,691.86,319.8L691.86,319.8z"/>
	</g>
</g>
<g>
	<g>
		<path d="M691.64,314.3c0,2.97,0,5.94,0,8.91c0,3.22,5,3.22,5,0c0-2.97,0-5.94,0-8.91C696.64,311.08,691.64,311.08,691.64,314.3
			L691.64,314.3z"/>
	</g>
</g>
<g>
	<g>
		<path d="M693.91,321.02c-0.86,10.42,4.06,21.69,15.09,24.18c9.84,2.22,18.4-4.94,19.47-14.67c1.12-10.17-6.43-18.84-15.54-22.27
			c-9.03-3.4-22.84,0.31-20.17,12.4c0.69,3.14,5.52,1.81,4.82-1.33c-1.31-5.93,5.44-8.17,10.07-7.39c3.17,0.53,6.3,1.96,8.87,3.87
			c5.17,3.83,8.43,10.2,6.49,16.61c-2.13,7.04-9.44,10.18-16.03,6.77c-6.71-3.47-8.65-11.18-8.08-18.18
			C699.18,317.81,694.18,317.83,693.91,321.02L693.91,321.02z"/>
	</g>
</g>
<g>
	<g>
		<path d="M735.31,326.06c-8.48,0.87-19.59,3.9-19.61,14.42c-0.02,11.61,11.89,16.8,21.31,19.53c10.05,2.92,19.38-0.79,22.3-11.46
			c2.38-8.69-0.95-17.85-8.12-23.14c-2.59-1.91-5.09,2.43-2.52,4.32c4.67,3.44,6.98,9.41,6.3,15.13c-0.36,3.05-1.62,6.08-3.77,8.31
			c-3.67,3.81-8.07,3.41-12.86,2.02c-6.57-1.91-15-4.58-17.18-11.93c-2.68-9.02,7.48-11.52,14.15-12.2
			C738.48,330.73,738.52,325.73,735.31,326.06L735.31,326.06z"/>
	</g>
</g>
<g>
	<g>
		<path d="M748.06,357.61c-8.95,2.54-20.79-1.66-27.55,6.8c-5.46,6.84-0.44,14.64,5.99,18.41c7.12,4.18,17.64,6.59,24.36,0.5
			c7.65-6.92,5.84-17.83,1.51-25.99c-1.51-2.84-5.82-0.32-4.32,2.52c3.33,6.29,5.51,16.29-1.9,20.82
			c-5.43,3.32-13.93,0.26-18.64-3.15c-2.59-1.87-4.92-4.4-4.08-7.79c0.83-3.38,4.3-4.96,7.44-5.69c6.09-1.4,12.38,0.13,18.5-1.6
			C752.48,361.56,751.17,356.73,748.06,357.61L748.06,357.61z"/>
	</g>
</g>
<g>
	<g>
		<path d="M617.15,320.06c-13.77-1.13-23.18,11.15-23.55,23.99c-0.16,5.5,0.87,12.01,4.31,16.48c3.88,5.05,10.5,5.55,16.4,6.24
			c11.74,1.37,24.23-1.02,28.41-13.57c2.12-6.39,2.42-14.47,1.58-21.09c-0.74-5.84-3.75-10.83-9.59-12.54
			c-3.09-0.91-4.42,3.92-1.33,4.82c9.1,2.67,6.88,20.56,4.51,27.48c-3.31,9.7-13.21,10.92-22.12,10.06
			c-4.1-0.4-10.47-0.61-13.44-3.83c-3.2-3.46-3.88-9.57-3.73-14.05c0.34-10.3,7.49-19.9,18.55-18.99
			C620.36,325.32,620.34,320.32,617.15,320.06L617.15,320.06z"/>
	</g>
</g>
<g>
	<g>
		<path d="M641.6,340.79c-4.99,9.61-5.93,22.09,1.39,30.86c5.95,7.12,16.8,10.36,25.22,5.78c9.91-5.39,8.04-17.9,2.62-25.95
			c-5.75-8.53-15.45-13.65-25.71-13.6c-3.22,0.02-3.22,5.02,0,5c7.33-0.04,14.24,2.96,19.2,8.38c5.05,5.53,10.04,17.17,1.36,21.85
			c-6.66,3.6-15.35,0.26-19.58-5.56c-5.17-7.11-4.02-16.85-0.18-24.24C647.4,340.46,643.09,337.93,641.6,340.79L641.6,340.79z"/>
	</g>
</g>
<g>
	<g>
		<path d="M685.9,337.51c-7.61-4.18-17.29,0.74-19.65,8.9c-2.89,10,5.23,20.16,14.08,23.72c9.75,3.92,19.78-1.07,21.16-11.77
			c1.36-10.56-6.84-18.58-15.68-22.74c-2.89-1.36-5.44,2.94-2.52,4.32c5.69,2.69,11.59,6.87,13.09,13.39
			c1.72,7.48-3.71,14.74-11.68,12.99c-6.8-1.49-13.63-8-13.98-15.21c-0.3-6.3,6.47-12.68,12.66-9.28
			C686.2,343.38,688.73,339.06,685.9,337.51L685.9,337.51z"/>
	</g>
</g>
<g>
	<g>
		<path d="M711.64,340.34c-9.1-1.87-18.33,4.76-19.03,14.21c-0.72,9.73,7.1,18.72,16.61,20.03c9.42,1.29,18.28-4.79,18.44-14.72
			c0.18-11.38-9.55-18.47-19.35-21.68c-3.07-1-4.38,3.82-1.33,4.82c6.59,2.15,13.49,6.12,15.28,13.35
			c1.82,7.37-3.16,13.59-10.72,13.42c-6.63-0.15-12.54-5.21-13.79-11.74c-1.39-7.27,5.12-14.39,12.55-12.86
			C713.45,345.81,714.8,340.99,711.64,340.34L711.64,340.34z"/>
	</g>
</g>
<g>
	<g>
		<path d="M694.52,366.2c-10.98,3.83-12.04,17.37-7.11,26.43c5.72,10.5,18.65,16.85,30.43,15.79c11.65-1.05,19.83-10.89,18.38-22.61
			c-1.48-11.94-12.85-19.33-24.26-19.34c-3.22,0-3.22,5,0,5c9.14,0.01,18.6,5.83,19.39,15.65c0.74,9.22-6.02,16.02-15.09,16.4
			c-8.07,0.34-16.39-3.33-21.71-9.38c-5.23-5.95-8.7-19.63,1.3-23.12C698.87,369.97,697.57,365.14,694.52,366.2L694.52,366.2z"/>
	</g>
</g>
<g>
	<g>
		<path d="M669.54,367.2c-9.74,0.97-16.03,9.56-15.47,19.14c0.52,8.97,6.63,20.58,16.93,20.5c10.11-0.07,15.58-10.5,16.05-19.35
			c0.43-7.97-0.09-25.45-11.69-24.7c-3.19,0.21-3.22,5.21,0,5c7.12-0.46,6.85,14.44,6.71,18.86c-0.2,6.29-3.4,15.1-11.07,15.19
			c-6.74,0.08-10.85-8.07-11.75-13.75c-1.12-7.07,2.46-15.12,10.29-15.9C672.71,371.88,672.75,366.88,669.54,367.2L669.54,367.2z"/>
	</g>
</g>
<g>
	<g>
		<path d="M628.93,362.27c-16.31,6.62-10.96,27.47,2.3,34.22c6.05,3.08,14.98,4.94,20.96,0.72c6.71-4.75,5.11-15.69,5.39-22.81
			c0.12-3.22-4.88-3.21-5,0c-0.18,4.62,0.56,10.7-0.94,15.13c-2.31,6.81-10.85,5.5-16.1,3.42c-4.93-1.96-9.38-5.73-11.14-10.88
			c-1.97-5.76-0.12-12.55,5.86-14.98C633.2,365.89,631.91,361.06,628.93,362.27L628.93,362.27z"/>
	</g>
</g>
<g>
	<g>
		<path d="M680.73,395.95c-10.15,5.23-5.8,19.23,3.17,23c9.73,4.09,19.85-4.5,19.18-14.56c-0.21-3.19-5.21-3.22-5,0
			c0.4,6.03-4.69,11.95-11.08,10.38c-6.05-1.49-10.64-10.95-3.75-14.5C686.12,398.8,683.59,394.48,680.73,395.95L680.73,395.95z"/>
	</g>
</g>
<g>
	<g>
		<path d="M664.71,407.24c-4.25,1.16-8.65,1.56-12.99,0.61c-3.55-0.78-10.74-4.34-6.67-8.86c2.15-2.39-1.38-5.93-3.54-3.54
			c-4.04,4.48-2.72,10.97,2.07,14.38c6.29,4.48,15.36,4.16,22.45,2.23C669.14,411.22,667.83,406.4,664.71,407.24L664.71,407.24z"/>
	</g>
</g>
<g>
	<g>
		<path d="M621.04,377.71c-4.53,1.15-9.78,2.64-14.26,0.54c-6.04-2.83-4.64-8.46-2.34-13.49c1.33-2.9-2.98-5.45-4.32-2.52
			c-2.85,6.22-4.79,13.45,1.24,18.49c6.04,5.06,14,3.58,21,1.81C625.49,381.75,624.17,376.92,621.04,377.71L621.04,377.71z"/>
	</g>
</g>
<g>
	<g>
		<path d="M696.95,282.99c-12.25-0.83-27.16-0.42-35.07,10.57c-6.61,9.18-5.56,22.12,5.47,27.17c5.66,2.59,12.21,2.74,18.32,2.8
			c7.45,0.07,15.18-0.4,22.26-2.94c10.71-3.86,21.61-14.32,14.9-26.33c-7.74-13.86-28.06-16.45-42.09-14.04
			c-3.16,0.54-1.82,5.36,1.33,4.82c7.45-1.28,14.99-0.82,22.19,1.56c6.1,2.02,13.57,6.02,15.34,12.79
			c2.01,7.7-5.57,13.33-11.76,15.88c-6.47,2.67-13.53,3.25-20.47,3.28c-5.61,0.02-11.81,0.13-17.11-1.97
			c-6.74-2.68-9.14-9.28-6.63-15.89c5.08-13.36,21.38-13.49,33.33-12.68C700.16,288.21,700.15,283.21,696.95,282.99L696.95,282.99z"
			/>
	</g>
</g>
<g>
	<g>
		<path d="M689.79,285.42c-3.69,7.64-2.63,17.17,3.7,23.16c6.3,5.95,15.99,6.52,23.34,2.34c2.8-1.59,0.28-5.91-2.52-4.32
			c-12.32,7.02-26.46-5.71-20.2-18.65C695.51,285.06,691.2,282.52,689.79,285.42L689.79,285.42z"/>
	</g>
</g>
<g>
	<g>
		<path d="M670.62,405.88c-3.31,0.87-6.62,1.73-9.93,2.6c-3.11,0.81-1.79,5.64,1.33,4.82c3.31-0.87,6.62-1.73,9.93-2.6
			C675.06,409.89,673.74,405.06,670.62,405.88L670.62,405.88z"/>
	</g>
</g>
<g>
	<g>
		<path d="M674.66,409.8c3.22,0,3.22-5,0-5C671.44,404.8,671.44,409.8,674.66,409.8L674.66,409.8z"/>
	</g>
</g>
<g>
	<g>
		<path d="M525.82,288.23c4.25,0.66,8.5-0.62,11.33-3.95c2.08-2.44-1.44-5.99-3.54-3.54c-1.6,1.88-3.95,3.06-6.47,2.67
			c-1.34-0.21-2.67,0.34-3.08,1.75C523.74,286.34,524.49,288.03,525.82,288.23L525.82,288.23z"/>
	</g>
</g>
</svg>
